<svg xmlns="http://www.w3.org/2000/svg" width="128" height="128" xml:space="preserve"><path fill="#282D33" d="M57.99 107.949h4.002v10.062H57.99z"/><path fill="#282D33" d="M59.022 109.353a54.675 54.675 0 0 1-24.505-5.791 53.316 53.316 0 0 1-4.79-2.705l2.147-3.377a49.598 49.598 0 0 0 4.432 2.501c24.896 12.44 55.386 2.527 67.964-22.1 6.06-11.877 7.106-25.384 2.946-38.032-4.195-12.762-13.176-23.123-25.283-29.175a51.468 51.468 0 0 0-4.675-2.055l1.437-3.735a54.667 54.667 0 0 1 5.033 2.213c13.064 6.53 22.759 17.719 27.291 31.502 4.496 13.67 3.365 28.267-3.184 41.103-9.599 18.792-28.859 29.65-48.813 29.651zM99.107 128H20.8l.083-2.082c.195-4.881 4.151-10.319 9.518-10.319h59.101c5.368 0 9.327 5.438 9.521 10.319l.084 2.082zm-73.787-4.003h69.267c-.854-2.302-2.843-4.396-5.085-4.396H30.401c-2.24.001-4.228 2.094-5.081 4.396z"/><path fill="#282D33" d="m35.01 89.402 3.559 1.831-8.312 16.155-3.559-1.83zM80.995-.002l3.56 1.83-7.596 14.766-3.56-1.831z"/><g><path fill="#282D33" d="M59.872 100.374a45.797 45.797 0 0 1-18.329-3.829c-11.202-4.887-19.795-13.823-24.199-25.166-4.359-11.228-4.069-23.456.817-34.434l3.657 1.628c-4.449 9.995-4.713 21.132-.743 31.357 4.014 10.34 11.852 18.489 22.068 22.945 21.025 9.16 45.665-.303 54.924-21.098 4.45-9.998 4.714-21.138.742-31.367-4.016-10.339-11.851-18.484-22.065-22.938a41.601 41.601 0 0 0-17.369-3.493l-.061-4.003c6.563-.107 12.977 1.188 19.029 3.827 11.199 4.883 19.792 13.818 24.196 25.158 4.361 11.231 4.072 23.465-.815 34.444-7.521 16.894-24.296 26.968-41.852 26.969z"/><path fill="#282D33" d="m52.441 84.257-.026-14.039 2.191-8.804-4.136-2.007-.694-6.536 7.714-6.392 5.935 3.375 2.109-2.076-7.432-3.928.966-3.833 6.476-5.624 8.746-2.892 5.059 4.675 9.602 1.065c.913-.067 5.063-.374 9.635-.684l.27 3.994a1480.8 1480.8 0 0 0-9.791.695l-.186.014L77.6 40.009l-4.293-3.966-5.744 1.899-4.567 3.967 9.243 4.887-8.161 8.033-6.161-3.504-3.933 3.258.233 2.192 5.059 2.455-2.856 11.475.008 4.311L69.5 62.729l3.615-3.513 7.376-3.899.947 9.735 5.235 5.223 15.479-11.62 2.404 3.201-18.253 13.702-8.709-8.688-.509-5.225-1.591.842-3.229 3.136-19.824 18.634zM27.659 77.478l-2.291-8.479 3.807-8.368-.451-7.307 3.995-.246.473 7.665c.021.469-.068.901-.256 1.286l-3.328 7.316.204.752 11.217-10.225-3.366-7.438 3.647-1.649 4.563 10.087-18.214 16.606zM57.842 33.46l-1.04-3.865 6.957-1.871 4.862-6.563 3.217 2.383-5.692 7.683z"/></g><g><path fill="#282D33" d="M36.29 47.933 35 46.844c-1.927-1.626-18.822-16.184-18.822-26.713C16.178 9.148 25.2.212 36.29.212c11.089 0 20.112 8.936 20.112 19.919 0 10.529-16.895 25.087-18.821 26.713l-1.291 1.089zm0-43.718c-8.883 0-16.11 7.14-16.11 15.916 0 6.776 10.643 17.659 16.109 22.531 5.467-4.875 16.109-15.763 16.109-22.531.001-8.777-7.226-15.916-16.108-15.916z"/><path fill="#282D33" d="M36.289 28.159c-4.463 0-8.094-3.602-8.094-8.028s3.631-8.028 8.094-8.028 8.094 3.602 8.094 8.028-3.631 8.028-8.094 8.028zm0-12.054c-2.256 0-4.091 1.806-4.091 4.025s1.835 4.026 4.091 4.026 4.092-1.807 4.092-4.026-1.836-4.025-4.092-4.025z"/></g></svg>